<svg
  viewBox="0 0 456 450"
  fill="none"
  xmlns="http://www.w3.org/2000/svg"
>
  <path
    fill-rule="evenodd"
    clip-rule="evenodd"
    d="M416.272 11.893C419.799 4.63825 427.09 -1.21593e-05 435.087 -1.21593e-05C442.613 -1.21593e-05 449.551 4.16253 453.314 10.8226C458.959 21.0506 455.431 34.0139 445.318 39.7226C435.204 45.4312 422.387 41.8633 416.742 31.6353H273.746L303.615 61.8435C305.615 63.7464 306.673 66.4818 306.555 69.2172C306.438 71.5958 305.379 73.7365 303.498 75.2826L213.302 165.55C214.831 170.07 214.714 174.946 213.185 179.465C209.187 190.526 197.192 196.234 186.256 192.31C175.319 188.266 169.675 176.135 173.555 165.075C177.553 154.014 189.548 148.306 200.485 152.23L283.742 67.9089L244.7 28.4242C242.231 25.6888 241.29 22.002 242.113 18.4341L242.231 17.9584L242.466 17.4827C244.112 14.0337 247.523 11.893 251.286 11.893H416.272ZM34.4403 195.52V53.637L25.2679 41.9819C16.0954 44.0037 6.68784 39.4844 2.33682 31.0403C-2.95496 20.6934 1.04327 7.73009 11.274 2.37825C21.5048 -2.97359 34.2051 1.07002 39.6145 11.4169H152.271C157.68 11.4169 161.913 15.8173 162.031 21.1692V21.6449C161.913 26.9967 157.562 31.1593 152.271 31.0403H40.7904L51.7268 44.7173L51.962 45.3119C52.7851 46.858 53.2555 48.523 53.2555 50.307V195.401V195.52C53.3731 200.753 49.2573 205.154 44.0831 205.273C38.7913 205.273 34.4403 200.872 34.4403 195.52ZM80.0672 137.245V71.4768L71.2476 62.676C69.2485 60.7731 68.1901 58.0377 68.3077 55.3024C68.4253 52.9238 69.4837 50.6641 71.3652 49.118C73.2467 47.2151 75.8338 46.1448 78.5385 46.2637C80.8904 46.3826 83.1247 47.453 84.6534 49.3559L95.825 60.7731C97.4713 62.5571 98.4121 64.9357 98.4121 67.4332V136.769C102.763 138.672 106.291 142.121 108.408 146.284C113.699 156.75 109.701 169.475 99.4704 174.946C89.1221 180.298 76.5394 176.254 71.13 165.907C65.8382 155.441 69.8365 142.716 80.0672 137.245ZM158.856 62.795C160.737 61.249 161.796 58.9893 161.913 56.6107C162.031 53.8753 160.973 51.2588 159.091 49.356C157.562 47.4531 155.328 46.3827 152.976 46.2638C150.271 46.1449 147.567 47.2152 145.685 49.237L128.752 66.9576C127.105 68.7415 126.164 71.1201 126.164 73.6177V194.331C115.934 199.802 111.935 212.528 117.227 222.994C122.519 233.459 135.219 237.384 145.568 232.032C155.916 226.68 159.797 213.836 154.505 203.37C152.388 199.208 148.86 195.759 144.627 193.856V77.1856L158.856 62.795ZM44.2006 231.794C55.7249 231.794 65.1326 241.309 65.1326 253.083C65.1326 260.932 60.6639 268.187 53.8434 271.874V409.476C57.7241 411.497 60.7815 414.59 62.7807 418.514C68.19 428.98 64.1918 441.706 53.8434 447.176C43.4951 452.647 30.9124 448.604 25.503 438.138C20.0936 427.672 24.0919 414.946 34.4402 409.476V271.874C27.5021 268.187 23.1511 260.932 23.1511 252.964C23.1511 241.309 32.5587 231.794 44.2006 231.794ZM389.342 75.2826C387.108 75.2826 384.874 75.6394 382.639 76.353L361.472 55.0645C359.708 53.3995 357.356 52.4481 354.887 52.4481C352.417 52.567 350.066 53.6374 348.302 55.5403L256.46 156.75L99.9408 317.424V213.122C100.058 207.771 95.9425 203.489 90.6507 203.37H90.1804C84.8886 203.489 80.5376 207.771 80.5376 213.122V340.734C80.5376 344.54 82.7719 347.989 86.1821 349.654L86.5349 349.892L87.0053 350.011C90.5331 350.962 94.2962 350.011 96.8833 347.513L269.395 169.594L354.534 75.6394L369.234 90.3867C368.058 94.5493 368.058 98.9497 369.469 103.112L96.4129 379.03C85.359 375.224 73.4819 381.17 69.7188 392.35C65.9558 403.529 71.8355 415.541 82.8895 419.347C93.9434 423.152 105.821 417.206 109.584 406.027C111.112 401.626 111.112 396.869 109.584 392.35L382.639 116.432C393.576 120.119 405.453 114.173 409.216 103.112C412.861 92.0517 406.982 80.0398 396.045 76.2341C393.928 75.6394 391.577 75.2826 389.342 75.2826Z"
    fill="#57e6cf"></path>
</svg>
