<svg width="379" height="368" viewBox="0 0 379 368" fill="none" xmlns="http://www.w3.org/2000/svg">
<path d="M34.1403 358.498C31.5473 358.498 28.9544 356.338 28.9544 353.315V207.756C28.9544 205.164 31.1152 202.573 34.1403 202.573C36.7332 202.573 39.3261 204.732 39.3261 207.756V353.747C38.894 356.338 36.7332 358.498 34.1403 358.498Z" fill="white"/>
<path d="M34.1402 164.995C31.5473 164.995 28.9544 162.836 28.9544 159.812V40.601L10.8039 17.709C9.50742 15.9813 9.07527 14.2536 9.93958 12.5259C10.8039 10.7982 12.5325 9.50244 14.2611 9.50244H125.325C127.918 9.50244 130.511 11.6621 130.511 14.6855C130.511 17.709 128.35 19.8686 125.325 19.8686H25.065L38.0296 35.8499C38.4618 36.7137 38.8939 37.5776 38.8939 38.8733V159.812C38.8939 162.836 36.7332 164.995 34.1402 164.995Z" fill="white"/>
<path d="M72.602 132.169C70.0091 132.169 67.4162 130.009 67.4162 126.986V55.2864L59.2052 47.0798C57.0445 44.9202 57.0445 41.8967 59.2052 40.169C61.366 38.0094 64.3911 38.0094 66.1197 40.169L75.6271 49.6714C76.4914 50.5352 76.9236 51.831 76.9236 53.1268V126.554C77.7879 129.577 75.6271 132.169 72.602 132.169Z" fill="white"/>
<path d="M72.602 334.31C71.3055 334.31 70.0091 333.878 69.1447 333.014C66.984 330.855 66.984 327.831 69.1447 326.104L317.634 77.7467L295.594 55.7185L221.695 136.057L76.4914 284.207C75.1949 285.503 73.0341 285.934 70.8734 285.503C69.1447 284.639 67.8483 282.911 67.8483 280.751V174.498C67.8483 171.906 70.009 169.315 73.0341 169.315C76.0592 169.315 78.22 171.474 78.22 174.498V268.657L215.213 129.578L292.569 45.3523C293.433 44.4885 294.729 43.6246 296.026 43.6246C297.322 43.6246 298.619 44.0566 299.483 44.9204L328.438 73.8594C329.302 74.7232 329.734 76.019 329.734 77.3148C329.734 78.6105 329.302 79.9063 328.438 80.7702L76.0592 333.014C75.1949 333.878 73.8984 334.31 72.602 334.31Z" fill="white"/>
<path d="M159.897 145.559C158.601 145.559 157.304 145.127 156.44 144.263C154.279 142.103 154.279 139.08 156.44 137.352L240.278 53.5587L205.273 18.5728C203.977 17.2771 203.545 15.1174 203.977 12.9578C204.841 11.2301 206.57 9.93433 208.731 9.93433H363.874C366.467 9.93433 369.06 12.094 369.06 15.1174C369.06 18.1409 366.899 20.3005 363.874 20.3005H220.399L250.65 50.5353C252.81 52.6949 252.81 55.7184 250.65 57.4461L163.354 143.831C162.49 145.127 161.194 145.559 159.897 145.559Z" fill="white"/>
<path d="M111.496 179.249C108.903 179.249 106.31 177.089 106.31 174.066V58.3099C106.31 57.0141 106.742 55.7183 107.607 54.8545L121.868 40.169C124.028 38.0094 127.053 38.0094 128.782 40.169C130.943 42.3287 130.943 45.3521 128.782 47.0798L115.817 60.0376V174.066C116.25 177.089 114.089 179.249 111.496 179.249Z" fill="white"/>
<path d="M14.6933 29.3709C22.8081 29.3709 29.3865 22.796 29.3865 14.6854C29.3865 6.5749 22.8081 0 14.6933 0C6.5784 0 0 6.5749 0 14.6854C0 22.796 6.5784 29.3709 14.6933 29.3709Z" fill="white"/>
<path d="M34.1402 222.441C42.2551 222.441 48.8335 215.866 48.8335 207.756C48.8335 199.645 42.2551 193.07 34.1402 193.07C26.0254 193.07 19.447 199.645 19.447 207.756C19.447 215.866 26.0254 222.441 34.1402 222.441Z" fill="white"/>
<path d="M34.1402 368.432C42.2551 368.432 48.8335 361.857 48.8335 353.747C48.8335 345.636 42.2551 339.061 34.1402 339.061C26.0254 339.061 19.447 345.636 19.447 353.747C19.447 361.857 26.0254 368.432 34.1402 368.432Z" fill="white"/>
<path d="M72.602 344.244C80.7168 344.244 87.2952 337.669 87.2952 329.559C87.2952 321.448 80.7168 314.873 72.602 314.873C64.4871 314.873 57.9087 321.448 57.9087 329.559C57.9087 337.669 64.4871 344.244 72.602 344.244Z" fill="white"/>
<path d="M324.98 92C333.095 92 339.674 85.4251 339.674 77.3146C339.674 69.204 333.095 62.6292 324.98 62.6292C316.865 62.6292 310.287 69.204 310.287 77.3146C310.287 85.4251 316.865 92 324.98 92Z" fill="white"/>
<path d="M363.442 29.3709C371.557 29.3709 378.135 22.796 378.135 14.6854C378.135 6.5749 371.557 0 363.442 0C355.327 0 348.749 6.5749 348.749 14.6854C348.749 22.796 355.327 29.3709 363.442 29.3709Z" fill="white"/>
<path d="M159.897 155.061C168.012 155.061 174.59 148.486 174.59 140.375C174.59 132.265 168.012 125.69 159.897 125.69C151.782 125.69 145.204 132.265 145.204 140.375C145.204 148.486 151.782 155.061 159.897 155.061Z" fill="white"/>
<path d="M111.496 189.183C119.611 189.183 126.189 182.608 126.189 174.498C126.189 166.387 119.611 159.812 111.496 159.812C103.381 159.812 96.8026 166.387 96.8026 174.498C96.8026 182.608 103.381 189.183 111.496 189.183Z" fill="white"/>
<path d="M72.602 141.671C80.7168 141.671 87.2952 135.097 87.2952 126.986C87.2952 118.875 80.7168 112.301 72.602 112.301C64.4871 112.301 57.9087 118.875 57.9087 126.986C57.9087 135.097 64.4871 141.671 72.602 141.671Z" fill="white"/>
</svg>
