<?xml version="1.0" standalone="no"?>
<!DOCTYPE svg PUBLIC "-//W3C//DTD SVG 20010904//EN"
 "http://www.w3.org/TR/2001/REC-SVG-20010904/DTD/svg10.dtd">
<svg version="1.0" xmlns="http://www.w3.org/2000/svg"
 width="778.000000pt" height="778.000000pt" viewBox="0 0 778.000000 778.000000"
 preserveAspectRatio="xMidYMid meet">
<metadata>
Created by potrace 1.14, written by Peter Selinger 2001-2017
</metadata>
<g transform="translate(0.000000,778.000000) scale(0.100000,-0.100000)"
fill="#000000" stroke="none">
<path d="M266 7654 c-118 -31 -215 -135 -245 -262 -54 -222 124 -440 354 -435
l70 1 35 -46 c19 -25 40 -50 46 -56 6 -6 24 -29 40 -52 l30 -41 -1 -1194 c0
-679 3 -1209 8 -1229 24 -94 113 -145 203 -117 40 12 88 61 101 102 14 44 10
2532 -4 2565 -6 14 -35 55 -64 91 -30 36 -65 81 -79 99 -14 18 -31 39 -38 47
-7 7 -12 14 -10 14 2 1 433 3 958 4 707 1 964 5 991 14 85 28 128 133 92 221
-16 38 -67 81 -106 90 -20 4 -469 8 -999 8 l-963 0 -15 23 c-43 69 -104 113
-210 156 -35 14 -135 13 -194 -3z"/>
<path d="M7327 7659 c-38 -9 -88 -32 -115 -53 -30 -24 -88 -82 -107 -109 l-20
-28 -1420 0 -1420 1 -39 -23 c-46 -26 -74 -67 -78 -117 -6 -85 -5 -85 358
-450 189 -190 344 -349 344 -354 0 -5 -316 -325 -702 -712 -678 -680 -704
-704 -733 -698 -174 40 -344 -42 -420 -201 -24 -51 -28 -72 -28 -145 -1 -75 3
-93 31 -151 110 -230 413 -277 588 -91 13 15 39 55 56 89 33 67 44 158 28 229
l-9 37 472 467 c260 258 615 610 790 783 227 225 317 321 319 338 1 26 1 50
-1 89 -1 18 -74 97 -276 300 l-276 276 1215 0 1214 -1 24 -30 c145 -187 402
-199 561 -26 106 115 112 318 14 447 -86 113 -232 165 -370 133z"/>
<path d="M1275 6876 c-77 -34 -116 -110 -95 -186 9 -35 30 -62 102 -133 l90
-90 0 -556 c0 -376 -3 -556 -10 -559 -27 -9 -89 -67 -118 -111 -143 -212 -21
-504 229 -549 81 -15 184 2 239 40 14 10 29 18 33 18 7 0 60 55 88 91 56 75
76 218 42 318 -21 66 -83 144 -143 182 l-47 30 0 602 c-1 532 -3 605 -17 632
-22 42 -243 264 -274 275 -35 14 -83 12 -119 -4z"/>
<path d="M2552 6883 c-21 -4 -93 -72 -285 -271 -65 -68 -91 -103 -100 -134 -9
-33 -12 -285 -12 -1060 l1 -1018 -42 -30 c-92 -66 -147 -177 -146 -296 2 -198
172 -361 364 -349 75 5 106 13 158 41 112 61 180 167 185 292 6 142 -51 254
-167 328 l-37 23 0 981 1 981 144 144 c124 125 144 149 145 177 1 18 2 40 3
48 2 21 -22 70 -48 98 -41 46 -89 59 -164 45z"/>
<path d="M5995 6775 c-30 -13 -74 -57 -250 -249 -49 -55 -101 -111 -115 -126
-14 -15 -47 -52 -75 -82 -167 -182 -233 -254 -260 -282 -16 -18 -65 -71 -108
-118 -87 -96 -86 -95 -217 -238 -52 -57 -106 -115 -120 -130 -14 -15 -61 -66
-105 -115 -44 -48 -96 -105 -115 -125 -19 -21 -69 -75 -110 -120 -114 -126
-130 -143 -593 -613 -238 -242 -517 -526 -622 -632 -104 -107 -389 -395 -631
-642 -243 -246 -559 -567 -703 -713 l-261 -265 0 898 c0 1002 4 944 -69 993
-45 29 -95 36 -145 19 -74 -26 -112 -80 -115 -166 -1 -30 -2 -58 -2 -64 0 -5
0 -482 0 -1058 1 -1006 2 -1050 20 -1085 42 -82 122 -113 206 -78 18 8 73 55
122 104 114 115 811 827 983 1002 141 144 715 730 970 991 827 842 901 919
1025 1054 50 54 101 110 115 125 60 65 196 214 215 234 84 92 176 194 210 230
22 24 78 85 125 137 47 51 96 105 110 119 14 15 63 69 110 121 46 52 96 106
110 120 14 14 59 63 100 109 41 46 104 114 140 153 36 38 73 79 83 92 l19 23
125 -124 c118 -118 124 -126 118 -157 -10 -48 -4 -155 10 -176 2 -4 -1042
-1052 -2320 -2330 -2231 -2230 -2325 -2323 -2352 -2316 -77 22 -180 8 -259
-34 -166 -87 -234 -304 -148 -473 34 -67 98 -129 169 -163 52 -26 71 -29 150
-30 82 0 96 3 157 33 71 35 133 95 164 160 10 20 19 42 20 47 1 6 6 28 11 50
10 45 10 70 -1 136 l-7 46 2322 2322 c1709 1708 2327 2320 2338 2315 34 -14
129 -13 186 2 103 26 188 97 234 194 22 46 26 69 26 145 0 78 -4 98 -29 152
-29 64 -96 137 -152 166 -66 34 -140 44 -234 33 l-55 -7 -190 190 c-104 105
-198 191 -207 191 -9 0 -19 4 -22 8 -8 13 -69 11 -101 -3z"/>
<path d="M651 3749 c-92 -32 -171 -102 -212 -188 -26 -56 -32 -82 -32 -151 0
-72 6 -98 38 -162 30 -61 65 -101 115 -133 l35 -22 0 -1159 1 -1159 -43 -28
c-50 -34 -107 -107 -129 -168 -26 -71 -22 -192 9 -261 49 -108 158 -196 267
-213 52 -8 52 -8 105 -1 80 9 152 45 212 105 34 35 73 94 79 124 1 4 2 8 4 10
7 9 13 52 14 112 2 74 -15 136 -54 200 -25 40 -109 117 -120 110 -4 -3 -9 5
-11 18 -2 12 -4 537 -3 1166 1 1114 1 1144 20 1154 18 9 95 86 120 119 28 36
52 134 49 198 -5 129 -45 199 -172 300 -7 6 -19 10 -27 10 -8 0 -17 4 -20 9
-17 27 -174 34 -245 10z"/>
</g>
</svg>
